<?xml version="1.0" encoding="utf-8"?>
<!-- Generator: Adobe Illustrator 21.0.0, SVG Export Plug-In . SVG Version: 6.00 Build 0)  -->
<svg version="1.1" id="Camada_3" xmlns="http://www.w3.org/2000/svg" xmlns:xlink="http://www.w3.org/1999/xlink" x="0px" y="0px"
	 viewBox="0 0 35 31" style="enable-background:new 0 0 35 31;" xml:space="preserve">
<style type="text/css">
	.st0{fill:none;}
	.st1{fill:#375FA2;}
	.st2{fill:#FFFFFF;}
	.st3{fill:#FF0000;}
</style>
<g>
	<path class="st0" d="M17.9,14.5c1.5,0.8,3.6,0.3,4.4-0.9c0.8-1.4,0.2-3.3-1.4-4.1c-1.4-0.7-3.6-0.2-4.3,1
		C15.8,11.7,16.4,13.7,17.9,14.5z"/>
	<path class="st1" d="M29.6,24.1c-1.2-1.2-2.4-2.3-3.7-3.4c-0.7-0.7-1.4-0.8-2.4-0.4C17.3,22.3,11,19,9.7,13.1
		c-0.2-0.9-0.8-1.4-1.7-1.7c-1.7-0.4-3.3-0.8-5-1.1c-1.2-0.2-1.6,0.1-1.8,1.1c-1.6,6,1.8,13.3,8.4,16.4c6.5,3.8,15.4,2.5,20.1-1.8
		C30.3,25.3,30.3,24.8,29.6,24.1z"/>
	<path class="st2" d="M13.4,8.9c-1.7,2.7-0.5,6.5,2.6,8.2c3.2,1.7,7.6,0.9,9.3-1.7c1.9-2.9,0.7-6.5-2.6-8.3
		C18.9,4.8,14.8,6.7,13.4,8.9z M16.6,10.5c0.8-1.2,3-1.7,4.3-1c1.6,0.8,2.2,2.7,1.4,4.1c-0.8,1.3-2.9,1.7-4.4,0.9
		C16.4,13.7,15.8,11.7,16.6,10.5z"/>
	<path class="st3" d="M4.9,5.7c1.6,0.3,3.3,0.7,4.8,1.2c0.6,0.2,1,0.1,1.4-0.3c1.4-1.6,3.3-2.4,5.6-2.8c2.5-0.4,1.9,0,2.3-2.4
		c0.1-0.5-0.1-0.7-0.7-0.8C13,0,8.3,1.3,4.5,4.5C3.9,5.2,4.1,5.5,4.9,5.7z"/>
	<path class="st3" d="M31.4,7.9c-0.3-0.4-0.6-0.5-1.1-0.2c-2.2,1.4-2.1,0.7-1.4,2.9c0.6,2,0.6,3.9-0.4,5.8c-0.3,0.5-0.2,0.9,0.3,1.3
		c1.2,1.1,2.3,2.2,3.2,3.5c0.5,0.6,0.9,0.6,1.3-0.1C35,16.5,34.3,12.1,31.4,7.9z"/>
</g>
</svg>
