<?xml version="1.0" encoding="utf-8"?>
<!-- Generator: Adobe Illustrator 21.0.0, SVG Export Plug-In . SVG Version: 6.00 Build 0)  -->
<svg version="1.1" id="Camada_3" xmlns="http://www.w3.org/2000/svg" xmlns:xlink="http://www.w3.org/1999/xlink" x="0px" y="0px"
	 viewBox="0 0 175 57" style="enable-background:new 0 0 175 57;" xml:space="preserve">
<style type="text/css">
	.st0{fill:none;}
	.st1{fill:#375FA2;}
	.st2{fill:#191919;}
	.st3{fill:#FFFFFF;}
	.st4{fill:#FF0000;}
	.st5{fill:#FFC93C;stroke:#375FA2;stroke-width:1.888;stroke-miterlimit:10;}
	.st6{fill:#FFC93C;stroke:#375FA2;stroke-width:1.8463;stroke-miterlimit:10;}
</style>
<path class="st0" d="M161.4,12.4c1.2,0.6,2.9,0.3,3.5-0.8c0.7-1.1,0.2-2.6-1.1-3.3c-1.1-0.5-2.9-0.1-3.5,0.8
	C159.7,10.2,160.2,11.8,161.4,12.4z"/>
<path class="st1" d="M170.8,20.1c-1-0.9-1.9-1.9-2.9-2.8c-0.6-0.5-1.1-0.6-1.9-0.4c-5,1.7-10-0.9-11.1-5.7c-0.2-0.7-0.6-1.1-1.4-1.3
	c-1.3-0.3-2.7-0.6-4-0.9c-0.9-0.2-1.3,0.1-1.5,0.9c-1.3,4.8,1.4,10.6,6.7,13.1c5.2,3,12.3,2,16.1-1.4
	C171.4,21,171.4,20.6,170.8,20.1z"/>
<path class="st2" d="M161.8-11.9c-1-0.9-1.9-1.9-2.9-2.8c-0.6-0.5-1.1-0.6-1.9-0.4c-5,1.7-10-0.9-11.1-5.7c-0.2-0.7-0.6-1.1-1.4-1.3
	c-1.3-0.3-2.7-0.6-4-0.9c-0.9-0.2-1.3,0.1-1.5,0.9c-1.3,4.8,1.4,10.6,6.7,13.1c5.2,3,12.3,2,16.1-1.4
	C162.4-11,162.4-11.4,161.8-11.9z"/>
<path class="st3" d="M157.8,7.9c-1.4,2.2-0.4,5.2,2.1,6.5c2.6,1.4,6.1,0.7,7.4-1.4c1.5-2.4,0.6-5.2-2.1-6.6
	C162.2,4.6,158.9,6.2,157.8,7.9z M160.4,9.2c0.6-0.9,2.4-1.4,3.5-0.8c1.3,0.6,1.8,2.1,1.1,3.3c-0.6,1-2.3,1.4-3.5,0.8
	C160.2,11.8,159.7,10.2,160.4,9.2z"/>
<path class="st4" d="M151.1,5.3c1.3,0.2,2.6,0.5,3.9,1c0.5,0.2,0.8,0.1,1.1-0.3c1.1-1.3,2.7-1.9,4.5-2.2c2-0.3,1.5,0,1.9-1.9
	c0.1-0.4-0.1-0.6-0.5-0.6c-4.4-0.5-8.1,0.5-11.1,3.1C150.3,4.9,150.4,5.2,151.1,5.3z"/>
<path class="st4" d="M172.2,7.1c-0.3-0.4-0.5-0.4-0.9-0.2c-1.7,1.1-1.6,0.6-1.1,2.3c0.5,1.6,0.5,3.1-0.3,4.6c-0.2,0.4-0.1,0.7,0.2,1
	c1,0.9,1.8,1.8,2.6,2.8c0.4,0.5,0.7,0.5,1-0.1C175.1,14,174.6,10.5,172.2,7.1z"/>
<g>
	<path class="st5" d="M133.7,21.8l2.9,9.2l0.6-7.9l10.8,2l-5.5,28.7l-6.5-0.7l-3.8-14.6L130,49.7l-8.3-1.2l4-24.6l-2.9-1l0.5-3.3
		L133.7,21.8z"/>
</g>
<g>
	<path class="st5" d="M39,20.1l10.7-3.4l0.1,5.1l5.6-4.5l7.3,4.3L52.5,32.7l21.8,11.9l0.6,6.2l-22.1-8.4l0.6,7.6l-10,0.3l-2.3-26.8
		l-3.1,0.6L39,20.1z"/>
</g>
<g>
	<path class="st5" d="M79,19.5l10.9,0.1l2.6,3.6l2.9-4.6l7,0.3l6.1,28.7l-12.7-1.7l-1.6-9.8l-2.8,3.4l-3-4.7l-1.7,8.1l-12.5-0.1
		L79,19.5z"/>
</g>
<g>
	<path class="st5" d="M2,27.4c3.8-1.1,7.3-2.1,10.4-2.9c3.4-0.9,6.5-1.5,9.2-1.6c2.3-0.1,3.8-0.2,4.5-0.1c2.3,0.2,4.2,0.8,5.7,1.8
		c0.8,0.5,1.5,1.1,2,1.8c0.2,0.3,0.3,0.6,0.4,1c0.2,2.3-2.5,5.6-8,10.1c-1.9,1.5-3.3,2.6-4.1,3.2l5,10.6l-5.9,3.6L8.8,32.9
		c-0.1,0.1-0.2,0.2-0.4,0.3l-1,0.9c-0.4,0.4-0.6,0.6-0.7,0.7c-0.1,0-0.7-0.9-1.7-2.7C4,30.5,3,28.9,2,27.4z M17.6,31.3l2.3,5
		c3.6-3.1,5.4-5.1,5.4-6c0-0.2-0.1-0.3-0.4-0.4c-0.8-0.1-1.5-0.1-2.1-0.1C20.6,30,18.9,30.5,17.6,31.3z"/>
</g>
<g>
	<path class="st5" d="M43.5,34.6c1.1,1.1,1.6,2.6,1.6,4.3c0,1.3-0.3,2.5-0.8,3.6c-0.2,0.5-0.5,0.9-0.9,1.3c-3,3.2-6.6,4.8-10.9,4.8
		c-2.2,0-4-0.4-5.5-1.3c-2.4-1.4-3.6-3.6-3.6-6.4c0-2.2,0.9-4,2.6-5.4c3-2.4,6.2-3.5,9.5-3.5c1,0,1.9,0.1,2.8,0.3
		C40.8,32.7,42.5,33.5,43.5,34.6z M40.8,36.2c0,0-3.9,2.1-4.4,1.5c-0.3-0.4,0-2.9,0-2.9c-1.5,0-5,2.5-5,3.6c0,0.8,0.5,1.4,1.5,2
		c0.9,0.5,1.9,0.8,3,0.8c1.8,0,3.1-0.8,4-2.3C40.3,38.1,40.9,36.6,40.8,36.2z"/>
</g>
<g>
	<path class="st6" d="M118.5,27.9l8.1-1.1l-1.5,7.4c0,0.5-0.1,1-0.2,1.6c-0.1,0.5-0.2,0.9-0.3,1.1l-1.6,8.1l-8.2-1.2l0.2-0.8
		c-1.4,0.1-2.8,0.1-4.2-0.2c-2.1-0.4-3.8-1.1-5-2.2c-2-1.8-2.7-4-2-6.8c0.5-2.1,1.7-3.7,3.6-4.7c3.4-1.7,6.7-2.3,9.9-1.7
		c0.4,0.1,0.8,0.2,1,0.2L118.5,27.9z M117,32c-1.4,0.2-2.6,0.6-3.7,1.4c-1,0.7-1.5,1.5-1.5,2.4c0,0.8,0.5,1.5,1.6,2
		c0.9,0.4,1.9,0.7,2.8,0.6c0.2,0,0.4,0,0.8-0.1c0,0-1.3-2.4-1.3-3.4C115.6,34.1,116.4,32.5,117,32z"/>
</g>
<g>
	<path class="st6" d="M165.2,36.6l8.2-0.2l-2.3,7.2c0,0.5-0.2,1-0.4,1.6c-0.2,0.5-0.3,0.9-0.4,1.1l-2.4,7.9l-8-2l0.3-0.8
		c-1.4,0-2.8-0.2-4.1-0.6c-2.1-0.6-3.6-1.5-4.7-2.7c-1.8-2-2.2-4.3-1.4-6.9c0.7-2.1,2-3.5,4.1-4.3c3.6-1.4,6.9-1.6,10.1-0.7
		c0.4,0.1,0.8,0.2,1,0.3L165.2,36.6z M163.4,40.5c-1.4,0-2.7,0.4-3.8,1c-1.1,0.6-1.7,1.4-1.8,2.2c-0.1,0.8,0.4,1.5,1.3,2.1
		c0.9,0.5,1.8,0.8,2.7,0.9c0.2,0,0.4,0,0.8,0c0,0-1.1-2.6-1-3.5C161.7,42.4,162.7,40.9,163.4,40.5z"/>
</g>
<g>
	<path class="st5" d="M148.8,51.3l-7.3-1.8l4.4-12.7l-2.5-0.3l1.9-2.7l9.1-0.1L148.8,51.3z M152.8,25.4c1.4,0.4,2.3,1,2.9,1.9
		c0.4,0.6,0.6,1.2,0.4,1.6c-0.3,0.8-1,1.4-2,1.8c-0.6,0.3-1.4,0.2-2.4-0.1c-1.4-0.4-2.3-1.1-2.7-1.9c-0.2-0.4-0.2-0.9-0.1-1.4
		c0.3-0.8,0.8-1.3,1.4-1.7C151.1,25.3,151.9,25.2,152.8,25.4z"/>
</g>
<g>
	<path class="st5" d="M72,31.8l4.5,4c-0.8,1.6-3.2,2.8-7.5,3.6c-1.9,0.4-3.7,0.6-5.6,0.6c-3.5,0-6-0.7-7.4-2
		c-1.2-1.1-1.8-2.5-1.8-4.3c0-1.1,0.3-2.3,0.8-3.6c0.6-1.5,1.4-2.6,2.4-3.2c2.7-1.9,6-2.8,9.9-2.8c3.3,0,6.1,0.7,8.3,2.2l-10.3,9
		c1.8,0,3.4-0.5,4.9-1.6C70.9,33.1,71.5,32.5,72,31.8z M66.8,28.6c-0.6-0.2-1.2-0.3-1.9-0.3c-1.5,0-2.6,0.3-3.3,1
		c-0.8,0.8-1.2,1.6-1.2,2.4c0,0.5,0.2,1.2,0.6,2.1L66.8,28.6z"/>
</g>
<g>
	<path class="st5" d="M64,22.2l7.9-6.7l5.9,3.3L67,23.9L64,22.2z"/>
</g>
</svg>
